# xmcd
# 
# Track frame offsets:
#     182
#     17882
#     40597
#     51367
#     62617
#     74735
#     89590
#     102615
#     112840
#     123462
#     136470
#     147755
#     159352
#     174685
# 
# Disc length: 2542
# 
# Revision: 1
# Processed by: cddbd v1.5.2PL0 Copyright (c) Steve Scherf et al.
# Submitted via: fre:ac v1.0.31
# 
DISCID=cb09ec0e
DTITLE=Roots of Rhythm - Super Bad
DYEAR=1999
DGENRE=R&B
TTITLE0=Curtis Mayfield - Superfly
TTITLE1=James Brown - Super Bad
TTITLE2=Lloyd Price - Stagger Lee
TTITLE3=Bo Diddley - Who Do You Love
TTITLE4=Rex Garvin and the Mighty Cravers - Sock It to 'Em JB
TTITLE5=Isaac Hayes - Theme from Shaft
TTITLE6=Otis Redding and Carla Thomas - Tramp
TTITLE7=The Bobbettes - Mr. Lee
TTITLE8=The Cadillacs - Speedo
TTITLE9=Jimmy Reed - Big Boss Man
TTITLE10=The Dominoes - Sixty-Minute Man
TTITLE11=Gene Chandler - Duke Of Earl
TTITLE12=Louis Armstrong - Mack the Knife
TTITLE13=The Spinners - The Rubberband Man
EXTD=
EXTT0=
EXTT1=
EXTT2=
EXTT3=
EXTT4=
EXTT5=
EXTT6=
EXTT7=
EXTT8=
EXTT9=
EXTT10=
EXTT11=
EXTT12=
EXTT13=
PLAYORDER=
